<svg xmlns="http://www.w3.org/2000/svg" xmlns:xlink="http://www.w3.org/1999/xlink" width="54" height="110" viewBox="0 0 54 110">
    <defs>
        <path id="a" d="M0 0h70v77H0z"/>
    </defs>
    <g fill="none" fill-rule="evenodd">
        <text fill="#FFF" font-family="Gotham-Bold, Gotham" font-size="18" font-weight="bold" transform="translate(-8)">
            <tspan x="8.427" y="14">Scroll</tspan>
        </text>
        <g transform="translate(-8 33)">
            <mask id="b" fill="#fff">
                <use xlink:href="#a"/>
            </mask>
            <g fill="#FFF" mask="url(#b)">
                <path d="M13.162 19.348L10.667 160S12.055 36.582 8.31 22.116C7.23 17.946 8.919 13 14.219 13H40l-26.838 6.348z"/>
                <path d="M43.67 6.905c-.597 0-1.156.212-1.577.594l-2.526 2.304 3.6 2.712 2.083-1.9a2.11 2.11 0 0 0 .063-3.055 2.346 2.346 0 0 0-1.643-.655zM42.88 46c-1.29 0-2.486-.608-3.197-1.627L26.258 25.166 13 18.996 30.535 3l6.329 4.767 2.858-2.608c1.062-.969 2.464-1.502 3.947-1.502 1.57 0 3.03.587 4.11 1.653 2.178 2.149 2.107 5.579-.158 7.646l-1.75 1.596 15.085 11.364c1.44 1.446 1.384 3.735-.13 5.117L45.531 44.985A3.92 3.92 0 0 1 42.882 46h-.001z"/>
            </g>
        </g>
    </g>
</svg>
